<?xml version="1.0" encoding="utf-8"?>
<!-- Generator: Adobe Illustrator 23.0.6, SVG Export Plug-In . SVG Version: 6.00 Build 0)  -->
<svg version="1.1"
	 id="Layer_1" xmlns:cc="http://creativecommons.org/ns#" xmlns:dc="http://purl.org/dc/elements/1.1/" xmlns:inkscape="http://www.inkscape.org/namespaces/inkscape" xmlns:rdf="http://www.w3.org/1999/02/22-rdf-syntax-ns#" xmlns:sodipodi="http://sodipodi.sourceforge.net/DTD/sodipodi-0.dtd" xmlns:svg="http://www.w3.org/2000/svg"
	 xmlns="http://www.w3.org/2000/svg" xmlns:xlink="http://www.w3.org/1999/xlink" x="0px" y="0px" viewBox="0 0 96 120"
	 style="enable-background:new 0 0 96 120;" xml:space="preserve">
<style type="text/css">
	.st0{fill:none;}
</style>
<g transform="translate(0,-956.36216)">
	<path d="M40,982.5c-7.6,0-13.8,6.2-13.8,13.7v0v0c0,3.7,1.5,7.2,4.1,9.8l15.3,15.2h2.6l15.1-15c2.7-2.6,4.3-6.2,4.3-10v0
		c0-7.5-6.2-13.7-13.8-13.7h0h0c-2.4,0-4.8,0.7-6.9,1.9C44.8,983.1,42.4,982.5,40,982.5L40,982.5L40,982.5L40,982.5z M40,988.8
		c1.8,0,3.5,0.6,4.9,1.8l2.1,1.8l2.1-1.8c1.3-1.2,3.1-1.8,4.9-1.8c4.1,0,7.4,3.3,7.4,7.4c0,2-0.8,3.9-2.3,5.3l0,0l-12,11.9
		l-12.1-12.1l0,0c-1.4-1.4-2.2-3.3-2.2-5.2c0,0,0,0,0,0C32.6,992.1,35.8,988.8,40,988.8L40,988.8z"/>
	<path d="M45.6,1013.8l-15.1,15l0.1-0.1c-2.7,2.6-4.3,6.2-4.3,10l0,0c0,7.5,6.2,13.7,13.8,13.7h0h0c2.4,0,4.8-0.7,6.9-1.9
		c2.1,1.2,4.5,1.9,6.9,1.9h0h0c7.6,0,13.8-6.2,13.8-13.7l0,0l0,0c0-3.7-1.5-7.2-4.1-9.8l-15.3-15.2L45.6,1013.8L45.6,1013.8z
		 M46.9,1021.5l12.1,12.1l0,0c1.4,1.4,2.2,3.3,2.2,5.2c0,4.1-3.3,7.3-7.4,7.3c-1.8,0-3.5-0.6-4.9-1.8l-2.1-1.8l-2.1,1.8
		c-1.3,1.2-3.1,1.8-4.8,1.8c-4.1,0-7.4-3.3-7.4-7.3c0-2,0.8-3.9,2.3-5.3l0,0L46.9,1021.5L46.9,1021.5z"/>
	<path d="M24.7,996.8c-7.5,0-13.7,6.2-13.7,13.8v0v0c0,2.4,0.7,4.8,1.9,6.9c-1.2,2.1-1.9,4.5-1.9,6.9l0,0v0
		c0,7.6,6.2,13.8,13.7,13.8h0h0c3.7,0,7.2-1.5,9.7-4.1l14.3-14.3l0,0c0.1-0.1,0.7-1,0.7-1c0,0,0.2-0.5,0.2-0.7c0-0.2,0-0.4,0-0.5
		c0-0.2,0-0.3,0-0.5c0-0.2-0.2-0.7-0.2-0.7c0,0-0.7-0.9-0.7-1l0,0l-14.1-14.2l0.1,0.1C32.1,998.4,28.5,996.8,24.7,996.8L24.7,996.8
		L24.7,996.8z M24.7,1003.2c2,0,3.9,0.8,5.3,2.3l0,0l11.9,12l-12.1,12.1l0,0c-1.4,1.4-3.3,2.2-5.2,2.2c-4.1,0-7.3-3.3-7.3-7.4l0,0
		c0-1.8,0.6-3.5,1.8-4.9l1.8-2.1l-1.8-2.1c-1.2-1.3-1.8-3.1-1.8-4.9C17.4,1006.5,20.6,1003.2,24.7,1003.2L24.7,1003.2z"/>
	<path d="M69.3,996.8c-3.8,0-7.4,1.6-10,4.3l0.1-0.1l-14.1,14.2l0,0c-0.1,0.1-0.7,1-0.7,1c0,0-0.2,0.5-0.2,0.7c0,0.2,0,0.4,0,0.5
		c0,0.2,0,0.3,0,0.5c0,0.2,0.2,0.7,0.2,0.7c0,0,0.7,0.9,0.7,1l0,0l14.3,14.3c2.6,2.6,6.1,4.1,9.7,4.1h0h0c7.5,0,13.7-6.2,13.7-13.8
		l0,0l0,0c0-2.5-0.7-4.8-1.9-6.9c1.2-2.1,1.9-4.5,1.9-6.9v0v0C83,1003,76.9,996.8,69.3,996.8L69.3,996.8L69.3,996.8z M69.3,1003.2
		c4.1,0,7.3,3.3,7.3,7.4c0,1.8-0.6,3.5-1.8,4.9l-1.8,2.1l1.8,2.1c1.2,1.3,1.8,3.1,1.8,4.9l0,0c0,0,0,0,0,0c0,4.1-3.3,7.4-7.3,7.4
		c-2,0-3.8-0.8-5.2-2.2l0,0L52,1017.5l11.9-12l0,0C65.4,1004,67.3,1003.2,69.3,1003.2L69.3,1003.2z"/>
	<ellipse cx="47" cy="1017.9" rx="10.6" ry="10.6"/>
</g>
<path id="SVGID_x5F_1_x5F_" class="st0" d="M-13.7,80.2C-13.7,47,13.5,20,47,20s60.8,27,60.8,60.2"/>
<text><textPath  xlink:href="#SVGID_x5F_1_x5F_" startOffset="29.6379%">
<tspan  style="font-family:'Arial-Black'; font-size:17px;">EN &amp; CO</tspan></textPath>
</text>
</svg>
