<?xml version="1.0" encoding="utf-8"?>
<!-- Generator: Adobe Illustrator 23.0.6, SVG Export Plug-In . SVG Version: 6.00 Build 0)  -->
<svg version="1.1" id="Layer_1" xmlns="http://www.w3.org/2000/svg" xmlns:xlink="http://www.w3.org/1999/xlink" x="0px" y="0px"
	 viewBox="0 0 64 80" style="enable-background:new 0 0 64 80;" xml:space="preserve">
<title>Floral and flower icon set outline style</title>
<desc>Floral and flower icon set outline style</desc>
<path d="M31.1,9.7C31.1,9.7,31.1,9.7,31.1,9.7c0.1,0.3,0.1,0.7,0.2,1c-0.2-0.2-0.4-0.4-0.6-0.5c-0.4-0.1-0.8-0.1-1.1,0.2
	c0,0,0,0,0,0c0,0,0,0,0,0c0.3,0.2,0.6,0.4,0.9,0.5c0.3,0.1,0.6,0.2,0.9,0.2c0,0,0.1,0,0.1,0c0.2,0.6,0.4,1.2,0.7,1.7
	c0.1,0.2,0.2,0.3,0.2,0.5c-0.3-0.3-0.6-0.4-1-0.5c-0.6-0.1-1.1,0.1-1.5,0.5c0,0,0,0,0,0c0,0,0,0,0,0c0.4,0.3,0.9,0.4,1.3,0.5
	c0.3,0.1,0.6,0.1,0.9,0.1c0.2,0,0.4,0,0.5-0.1c0.3,0.9,0.5,1.8,0.5,2.7c-0.3-0.5-0.8-0.9-1.4-0.9c-0.6-0.1-1.3,0.1-1.7,0.6
	c0,0,0,0.1,0,0.1c0,0,0,0,0,0c0.5,0.3,1,0.5,1.6,0.6c0.3,0.1,0.7,0.1,1,0.1c0.2,0,0.4,0,0.6-0.1c0,0,0,0,0,0c0,1-0.1,1.9-0.4,2.8
	c-0.2-0.7-0.7-1.2-1.4-1.4c-0.6-0.2-1.4-0.1-1.9,0.3c0,0,0,0,0,0c0,0,0,0,0,0c0.5,0.4,1,0.7,1.6,0.9c0.5,0.2,1,0.3,1.5,0.3
	c0.1,0,0.1,0,0.2,0c-0.2,0.4-0.3,0.8-0.5,1.2c0,0,0,0.1,0,0.1c0,0,0,0,0,0c0,0,0,0,0.1,0c0.5-0.9,0.8-1.8,0.9-2.8
	c0.5,0,1-0.2,1.7-0.6c0.6-0.3,1-0.7,1.5-1.2c0,0,0,0,0,0c0,0,0,0,0,0c-0.6-0.4-1.4-0.4-2,0c-0.5,0.2-0.9,0.6-1.1,1.1
	c0-0.2,0-0.5,0-0.7c0-0.5,0-1-0.1-1.6c0.5-0.2,1-0.5,1.3-0.8c0.4-0.4,0.7-0.8,1-1.3c0,0,0-0.1,0-0.1c-0.6-0.2-1.2-0.1-1.7,0.4
	c-0.4,0.3-0.6,0.7-0.7,1.2c-0.2-0.7-0.5-1.4-0.8-2.1c-0.1-0.2-0.2-0.3-0.2-0.5c0.3-0.2,0.6-0.4,0.9-0.7c0.3-0.3,0.5-0.6,0.6-1
	c0,0,0-0.1,0-0.1c0,0,0,0,0,0c-0.5-0.1-0.9,0.1-1.2,0.4c-0.2,0.3-0.4,0.6-0.4,0.9c-0.3-0.7-0.5-1.4-0.5-2.2c0,0,0,0,0,0
	c0,0,1.2-0.5,1.6-1.1c0.4-0.6,0.3-0.8,0-1c-0.1-0.1-0.2-0.2-0.4-0.2c0.1-0.2,0.1-0.5,0.1-0.7c-0.1-0.1-0.2-0.2-0.3-0.2
	c-0.1-0.1-0.3-0.1-0.4,0c0,0-0.1,0-0.1,0.1c0-0.2-0.2-0.4-0.5-0.4c0,0-0.1,0-0.1,0c-0.2,0-0.5,0-0.5,0.5c-0.1,0-0.3,0-0.4,0
	c-0.3,0.1-0.5,0.2-0.3,0.9c0,0-0.1,0-0.1,0h0c-0.1,0-0.3,0.1-0.4,0.2c-0.1,0.1-0.2,0.2-0.2,0.4c0,0.2,0.2,0.4,0.3,0.6
	C30,9.1,31.1,9.7,31.1,9.7z M30.5,10.9c-0.3-0.1-0.6-0.3-0.8-0.5c0.3-0.2,0.6-0.2,0.9-0.1l0,0c0.4,0.1,0.6,0.4,0.7,0.8
	C31.1,11.1,30.7,11,30.5,10.9L30.5,10.9z M31.3,13.9c-0.4-0.1-0.9-0.2-1.2-0.5c0.3-0.3,0.8-0.5,1.3-0.4l0,0c0.5,0.1,1,0.4,1.2,0.9
	C32.1,14,31.7,14,31.3,13.9L31.3,13.9z M31.6,16.9c-0.5-0.1-1-0.3-1.5-0.5c0.4-0.4,1-0.6,1.5-0.5l0,0c0.6,0.1,1.2,0.5,1.4,1.1
	C32.6,17.1,32.1,17.1,31.6,16.9L31.6,16.9z M31,19.8c-0.5-0.2-1-0.5-1.5-0.8c0.5-0.4,1.1-0.5,1.7-0.3l0,0c0.7,0.2,1.2,0.7,1.4,1.4
	C32.1,20.1,31.5,20,31,19.8z M34.4,16.9L34.4,16.9c0.3-0.2,0.6-0.2,1-0.2c0.3,0,0.6,0.1,0.9,0.2c-0.4,0.4-0.9,0.8-1.4,1.1
	c-0.5,0.3-1,0.5-1.6,0.6C33.3,17.8,33.7,17.2,34.4,16.9z M33.8,13.9L33.8,13.9c0.3-0.3,0.7-0.4,1.1-0.4c0.1,0,0.3,0,0.4,0.1
	c-0.2,0.4-0.6,0.8-0.9,1.2c-0.3,0.4-0.8,0.6-1.2,0.8C33.1,14.9,33.3,14.3,33.8,13.9z M32.3,11L32.3,11c0.2-0.3,0.5-0.4,0.9-0.4
	c0.1,0,0.1,0,0.2,0c-0.1,0.3-0.3,0.6-0.6,0.9c-0.2,0.3-0.5,0.5-0.8,0.7C31.9,11.8,32,11.3,32.3,11z M31.3,7.4c0.1,0,0.2,0,0.3,0.1
	c0.1,0.2,0.1,0.4,0.1,0.6c-0.1,0.5-0.2,1-0.5,1.5C31,9,30.9,8.5,30.8,8C30.9,7.3,31.1,7.4,31.3,7.4z M32.8,8.5
	c-0.3,0.4-1.1,0.9-1.4,1c0.2-0.4,0.4-0.9,0.5-1.3c0-0.1,0.1-0.2,0.2-0.3c0.2-0.2,0.3-0.4,0.5-0.4c0.1,0,0.2,0,0.3,0.1
	C33,7.8,33.2,7.9,32.8,8.5L32.8,8.5z M31.8,6.6c0.1,0,0.2,0,0.3,0c0.1,0,0.2,0.1,0.3,0.2c0,0.2,0,0.4-0.1,0.6c0,0,0,0,0,0.1
	c-0.2,0.1-0.3,0.2-0.4,0.4c0,0,0,0,0,0.1c0-0.2,0-0.4-0.1-0.5c-0.1-0.1-0.2-0.1-0.3-0.1c0-0.1,0-0.1,0-0.2
	C31.6,6.8,31.7,6.6,31.8,6.6L31.8,6.6z M31.1,6.3c0.2,0,0.4,0,0.5,0.4c-0.1,0.1-0.1,0.2-0.2,0.4c0,0.1,0,0.1-0.1,0.2h0
	c-0.1,0-0.2,0-0.3,0c0,0,0-0.1,0-0.1c-0.1-0.2-0.1-0.4-0.3-0.5C30.7,6.3,30.9,6.3,31.1,6.3z M30,7.5c-0.2-0.6,0-0.7,0.2-0.8
	c0.2-0.1,0.4-0.1,0.6,0.5c0,0,0,0.1,0,0.1c-0.1,0.2-0.2,0.4-0.2,0.6c0,0.2,0,0.3,0,0.5c-0.1-0.2-0.3-0.5-0.4-0.7
	C30.2,7.7,30.1,7.7,30,7.5C30,7.6,30,7.5,30,7.5L30,7.5z M29.5,7.7c0.1-0.1,0.2-0.2,0.3-0.2h0c0.1,0,0.3,0.1,0.5,0.3
	c0.4,0.4,0.7,1.2,0.8,1.6c-0.5-0.3-1-0.6-1.4-1c-0.2-0.2-0.3-0.4-0.3-0.5C29.3,7.9,29.4,7.8,29.5,7.7L29.5,7.7z"/>
</svg>
